<svg width="20" height="34" viewBox="0 0 20 34" fill="none" xmlns="http://www.w3.org/2000/svg">
<path d="M9.58398 19.2795L4.79199 19.3234L4.79237 14.5423L9.58398 14.4816V9.68367L4.79199 9.72753L4.79199 14.5254L0 14.5693L0 19.3672L4.79199 19.3234L4.79199 24.1213L9.58398 24.0774V19.2795ZM14.376 28.8315L9.58398 28.8753L9.58398 24.0774L14.376 24.0336L14.376 28.8315ZM14.376 28.8315L19.168 28.7876V33.5855L14.376 33.6294V28.8315ZM14.376 4.84189L9.58398 4.88575L9.58398 9.68367L14.376 9.63981L14.376 4.84189ZM14.376 4.84189L19.168 4.79803L19.168 0.00011017L14.376 0.0439712V4.84189Z" fill="white"/>
</svg>
