<svg width="37" height="60" viewBox="0 0 37 60" fill="none" xmlns="http://www.w3.org/2000/svg">
<path d="M18.7562 25.6966L27.7345 25.8844L27.5347 34.295L18.5563 34.1368L18.3564 42.5771L27.3348 42.765L27.5347 34.3247L36.5131 34.5126L36.7129 26.0723L27.7345 25.8844L27.9344 17.4442L18.956 17.2563L18.7562 25.6966ZM10.1775 8.6281L19.1559 8.81598L18.956 17.2563L9.97764 17.0684L10.1775 8.6281ZM10.1775 8.6281L1.19913 8.44021L1.39899 -7.08474e-05L10.3774 0.187813L10.1775 8.6281ZM9.17819 50.8295L18.1566 51.0174L18.3564 42.5771L9.37806 42.3892L9.17819 50.8295ZM9.17819 50.8295L0.199816 50.6416L-4.56983e-05 59.0819L8.97833 59.2698L9.17819 50.8295Z" fill="white"/>
</svg>
