<svg width="24" height="24" viewBox="0 0 24 24" fill="none" xmlns="http://www.w3.org/2000/svg">
<mask id="path-1-inside-1_1_626" fill="white">
<path d="M17.0525 14.25C17.1475 13.4663 17.2188 12.6825 17.2188 11.875C17.2188 11.0675 17.1475 10.2837 17.0525 9.5H21.0662C21.2563 10.26 21.375 11.0556 21.375 11.875C21.375 12.6944 21.2563 13.49 21.0662 14.25M14.9506 20.8525C15.6631 19.5344 16.2094 18.1094 16.5894 16.625H20.0925C18.942 18.6061 17.1168 20.1067 14.9506 20.8525ZM14.6538 14.25H9.09625C8.9775 13.4663 8.90625 12.6825 8.90625 11.875C8.90625 11.0675 8.9775 10.2719 9.09625 9.5H14.6538C14.7606 10.2719 14.8438 11.0675 14.8438 11.875C14.8438 12.6825 14.7606 13.4663 14.6538 14.25ZM11.875 21.3275C10.8894 19.9025 10.0938 18.3231 9.60688 16.625H14.1431C13.6562 18.3231 12.8606 19.9025 11.875 21.3275ZM7.125 7.125H3.6575C4.79589 5.13835 6.61991 3.63522 8.7875 2.8975C8.075 4.21563 7.54063 5.64062 7.125 7.125ZM3.6575 16.625H7.125C7.54063 18.1094 8.075 19.5344 8.7875 20.8525C6.62419 20.1071 4.80259 18.606 3.6575 16.625ZM2.68375 14.25C2.49375 13.49 2.375 12.6944 2.375 11.875C2.375 11.0556 2.49375 10.26 2.68375 9.5H6.6975C6.6025 10.2837 6.53125 11.0675 6.53125 11.875C6.53125 12.6825 6.6025 13.4663 6.6975 14.25M11.875 2.41063C12.8606 3.83563 13.6562 5.42688 14.1431 7.125H9.60688C10.0938 5.42688 10.8894 3.83563 11.875 2.41063ZM20.0925 7.125H16.5894C16.2171 5.65441 15.6668 4.23475 14.9506 2.8975C17.1356 3.64563 18.9525 5.15375 20.0925 7.125ZM11.875 0C5.30812 0 0 5.34375 0 11.875C0 15.0244 1.25111 18.0449 3.47811 20.2719C4.5808 21.3746 5.88989 22.2493 7.33063 22.8461C8.77138 23.4428 10.3156 23.75 11.875 23.75C15.0244 23.75 18.0449 22.4989 20.2719 20.2719C22.4989 18.0449 23.75 15.0244 23.75 11.875C23.75 10.3156 23.4428 8.77138 22.8461 7.33063C22.2493 5.88989 21.3746 4.5808 20.2719 3.47811C19.1692 2.37541 17.8601 1.50071 16.4194 0.903931C14.9786 0.307156 13.4344 0 11.875 0Z"/>
</mask>
<path d="M17.0525 14.25C17.1475 13.4663 17.2188 12.6825 17.2188 11.875C17.2188 11.0675 17.1475 10.2837 17.0525 9.5H21.0662C21.2563 10.26 21.375 11.0556 21.375 11.875C21.375 12.6944 21.2563 13.49 21.0662 14.25M14.9506 20.8525C15.6631 19.5344 16.2094 18.1094 16.5894 16.625H20.0925C18.942 18.6061 17.1168 20.1067 14.9506 20.8525ZM14.6538 14.25H9.09625C8.9775 13.4663 8.90625 12.6825 8.90625 11.875C8.90625 11.0675 8.9775 10.2719 9.09625 9.5H14.6538C14.7606 10.2719 14.8438 11.0675 14.8438 11.875C14.8438 12.6825 14.7606 13.4663 14.6538 14.25ZM11.875 21.3275C10.8894 19.9025 10.0938 18.3231 9.60688 16.625H14.1431C13.6562 18.3231 12.8606 19.9025 11.875 21.3275ZM7.125 7.125H3.6575C4.79589 5.13835 6.61991 3.63522 8.7875 2.8975C8.075 4.21563 7.54063 5.64062 7.125 7.125ZM3.6575 16.625H7.125C7.54063 18.1094 8.075 19.5344 8.7875 20.8525C6.62419 20.1071 4.80259 18.606 3.6575 16.625ZM2.68375 14.25C2.49375 13.49 2.375 12.6944 2.375 11.875C2.375 11.0556 2.49375 10.26 2.68375 9.5H6.6975C6.6025 10.2837 6.53125 11.0675 6.53125 11.875C6.53125 12.6825 6.6025 13.4663 6.6975 14.25M11.875 2.41063C12.8606 3.83563 13.6562 5.42688 14.1431 7.125H9.60688C10.0938 5.42688 10.8894 3.83563 11.875 2.41063ZM20.0925 7.125H16.5894C16.2171 5.65441 15.6668 4.23475 14.9506 2.8975C17.1356 3.64563 18.9525 5.15375 20.0925 7.125ZM11.875 0C5.30812 0 0 5.34375 0 11.875C0 15.0244 1.25111 18.0449 3.47811 20.2719C4.5808 21.3746 5.88989 22.2493 7.33063 22.8461C8.77138 23.4428 10.3156 23.75 11.875 23.75C15.0244 23.75 18.0449 22.4989 20.2719 20.2719C22.4989 18.0449 23.75 15.0244 23.75 11.875C23.75 10.3156 23.4428 8.77138 22.8461 7.33063C22.2493 5.88989 21.3746 4.5808 20.2719 3.47811C19.1692 2.37541 17.8601 1.50071 16.4194 0.903931C14.9786 0.307156 13.4344 0 11.875 0Z" fill="#FBFDFF"/>
<path d="M17.0525 9.5V9.2H16.7139L16.7547 9.5361L17.0525 9.5ZM21.0662 9.5L21.3573 9.42724L21.3005 9.2H21.0662V9.5ZM14.9506 20.8525L14.6867 20.7098L14.3209 21.3866L15.0483 21.1362L14.9506 20.8525ZM16.5894 16.625V16.325H16.3565L16.2987 16.5506L16.5894 16.625ZM20.0925 16.625L20.3519 16.7757L20.6136 16.325H20.0925V16.625ZM14.6538 14.25V14.55H14.9156L14.951 14.2905L14.6538 14.25ZM9.09625 14.25L8.79963 14.2949L8.83828 14.55H9.09625V14.25ZM9.09625 9.5V9.2H8.83887L8.79974 9.45438L9.09625 9.5ZM14.6538 9.5L14.9509 9.45885L14.9151 9.2H14.6538V9.5ZM11.875 21.3275L11.6283 21.4982L11.875 21.8549L12.1217 21.4982L11.875 21.3275ZM9.60688 16.625V16.325H9.20877L9.31849 16.7077L9.60688 16.625ZM14.1431 16.625L14.4315 16.7077L14.5412 16.325H14.1431V16.625ZM7.125 7.125V7.425H7.35254L7.41389 7.20589L7.125 7.125ZM3.6575 7.125L3.39721 6.97585L3.13983 7.425H3.6575V7.125ZM8.7875 2.8975L9.05141 3.04016L9.41532 2.36693L8.69084 2.6135L8.7875 2.8975ZM3.6575 16.625V16.325H3.13757L3.39777 16.7751L3.6575 16.625ZM7.125 16.625L7.41389 16.5441L7.35254 16.325H7.125V16.625ZM8.7875 20.8525L8.68977 21.1361L9.41735 21.3868L9.05141 20.7098L8.7875 20.8525ZM2.68375 9.5V9.2H2.44952L2.39271 9.42724L2.68375 9.5ZM6.6975 9.5L6.99532 9.5361L7.03606 9.2H6.6975V9.5ZM11.875 2.41063L12.1217 2.23997L11.875 1.88325L11.6283 2.23997L11.875 2.41063ZM14.1431 7.125V7.425H14.5412L14.4315 7.04232L14.1431 7.125ZM9.60688 7.125L9.31849 7.04232L9.20877 7.425H9.60688V7.125ZM20.0925 7.125V7.425H20.6125L20.3522 6.97481L20.0925 7.125ZM16.5894 7.125L16.2985 7.19861L16.3558 7.425H16.5894V7.125ZM14.9506 2.8975L15.0478 2.61368L14.3259 2.36651L14.6862 3.03914L14.9506 2.8975ZM11.875 0V-0.3V0ZM11.875 23.75V24.05V23.75ZM17.0525 14.25L17.3503 14.2861C17.446 13.4969 17.5187 12.6997 17.5187 11.875H17.2188H16.9188C16.9188 12.6652 16.849 13.4356 16.7547 14.2139L17.0525 14.25ZM17.2188 11.875H17.5187C17.5187 11.0503 17.446 10.2531 17.3503 9.4639L17.0525 9.5L16.7547 9.5361C16.849 10.3144 16.9188 11.0848 16.9188 11.875H17.2188ZM17.0525 9.5V9.8H21.0662V9.5V9.2H17.0525V9.5ZM21.0662 9.5L20.7752 9.57276C20.9604 10.3137 21.075 11.0846 21.075 11.875H21.375H21.675C21.675 11.0267 21.5521 10.2063 21.3573 9.42724L21.0662 9.5ZM21.375 11.875H21.075C21.075 12.6654 20.9604 13.4363 20.7752 14.1772L21.0662 14.25L21.3573 14.3228C21.5521 13.5437 21.675 12.7233 21.675 11.875H21.375ZM14.9506 20.8525L15.2145 20.9952C15.9395 19.654 16.4944 18.2059 16.88 16.6994L16.5894 16.625L16.2987 16.5506C15.9244 18.0129 15.3868 19.4148 14.6867 20.7098L14.9506 20.8525ZM16.5894 16.625V16.925H20.0925V16.625V16.325H16.5894V16.625ZM20.0925 16.625L19.8331 16.4743C18.7188 18.3931 16.951 19.8465 14.853 20.5688L14.9506 20.8525L15.0483 21.1362C17.2826 20.3669 19.1652 18.8191 20.3519 16.7757L20.0925 16.625ZM14.6538 14.25V13.95H9.09625V14.25V14.55H14.6538V14.25ZM9.09625 14.25L9.39286 14.2051C9.27591 13.4331 9.20625 12.6647 9.20625 11.875H8.90625H8.60625C8.60625 12.7003 8.67909 13.4994 8.79963 14.2949L9.09625 14.25ZM8.90625 11.875H9.20625C9.20625 11.085 9.27596 10.3048 9.39276 9.54562L9.09625 9.5L8.79974 9.45438C8.67904 10.2389 8.60625 11.05 8.60625 11.875H8.90625ZM9.09625 9.5V9.8H14.6538V9.5V9.2H9.09625V9.5ZM14.6538 9.5L14.3566 9.54115C14.4626 10.307 14.5437 11.0873 14.5437 11.875H14.8438H15.1438C15.1438 11.0477 15.0586 10.2367 14.9509 9.45885L14.6538 9.5ZM14.8438 11.875H14.5437C14.5437 12.6625 14.4627 13.4308 14.3565 14.2095L14.6538 14.25L14.951 14.2905C15.0586 13.5017 15.1438 12.7025 15.1438 11.875H14.8438ZM11.875 21.3275L12.1217 21.1568C11.1519 19.7547 10.3719 18.2047 9.89526 16.5423L9.60688 16.625L9.31849 16.7077C9.81562 18.4416 10.6268 20.0503 11.6283 21.4982L11.875 21.3275ZM9.60688 16.625V16.925H14.1431V16.625V16.325H9.60688V16.625ZM14.1431 16.625L13.8547 16.5423C13.3781 18.2047 12.5981 19.7547 11.6283 21.1568L11.875 21.3275L12.1217 21.4982C13.1232 20.0503 13.9344 18.4416 14.4315 16.7077L14.1431 16.625ZM7.125 7.125V6.825H3.6575V7.125V7.425H7.125V7.125ZM3.6575 7.125L3.91779 7.27415C5.01987 5.35088 6.78571 3.89569 8.88416 3.1815L8.7875 2.8975L8.69084 2.6135C6.45411 3.37475 4.5719 4.92583 3.39721 6.97585L3.6575 7.125ZM8.7875 2.8975L8.52359 2.75484C7.79805 4.09709 7.25618 5.54387 6.83611 7.04411L7.125 7.125L7.41389 7.20589C7.82507 5.73738 8.35195 4.33416 9.05141 3.04016L8.7875 2.8975ZM3.6575 16.625V16.925H7.125V16.625V16.325H3.6575V16.625ZM7.125 16.625L6.83611 16.7059C7.25618 18.2061 7.79805 19.6529 8.52359 20.9952L8.7875 20.8525L9.05141 20.7098C8.35195 19.4158 7.82507 18.0126 7.41389 16.5441L7.125 16.625ZM8.7875 20.8525L8.88523 20.5689C6.79024 19.847 5.02616 18.3933 3.91723 16.4749L3.6575 16.625L3.39777 16.7751C4.57902 18.8187 6.45815 20.3672 8.68977 21.1361L8.7875 20.8525ZM2.68375 14.25L2.97479 14.1772C2.78956 13.4363 2.675 12.6654 2.675 11.875H2.375H2.075C2.075 12.7233 2.19794 13.5437 2.39271 14.3228L2.68375 14.25ZM2.375 11.875H2.675C2.675 11.0846 2.78956 10.3137 2.97479 9.57276L2.68375 9.5L2.39271 9.42724C2.19794 10.2063 2.075 11.0267 2.075 11.875H2.375ZM2.68375 9.5V9.8H6.6975V9.5V9.2H2.68375V9.5ZM6.6975 9.5L6.39968 9.4639C6.30403 10.2531 6.23125 11.0503 6.23125 11.875H6.53125H6.83125C6.83125 11.0848 6.90097 10.3144 6.99532 9.5361L6.6975 9.5ZM6.53125 11.875H6.23125C6.23125 12.6997 6.30403 13.4969 6.39968 14.2861L6.6975 14.25L6.99532 14.2139C6.90097 13.4356 6.83125 12.6652 6.83125 11.875H6.53125ZM11.875 2.41063L11.6283 2.58128C12.5977 3.9829 13.378 5.54478 13.8547 7.20768L14.1431 7.125L14.4315 7.04232C13.9345 5.30898 13.1235 3.68835 12.1217 2.23997L11.875 2.41063ZM14.1431 7.125V6.825H9.60688V7.125V7.425H14.1431V7.125ZM9.60688 7.125L9.89526 7.20768C10.372 5.54478 11.1523 3.9829 12.1217 2.58128L11.875 2.41063L11.6283 2.23997C10.6265 3.68835 9.81547 5.30898 9.31849 7.04232L9.60688 7.125ZM20.0925 7.125V6.825H16.5894V7.125V7.425H20.0925V7.125ZM16.5894 7.125L16.8802 7.05139C16.502 5.55714 15.9428 4.11463 15.2151 2.75586L14.9506 2.8975L14.6862 3.03914C15.3908 4.35487 15.9323 5.75169 16.2985 7.19861L16.5894 7.125ZM14.9506 2.8975L14.8534 3.18132C16.9694 3.90582 18.7288 5.36621 19.8328 7.27519L20.0925 7.125L20.3522 6.97481C19.1762 4.94129 17.3018 3.38543 15.0478 2.61368L14.9506 2.8975ZM11.875 0V-0.3C5.14185 -0.3 -0.3 5.17865 -0.3 11.875H0H0.3C0.3 5.50885 5.4744 0.3 11.875 0.3V0ZM0 11.875H-0.3C-0.3 15.104 0.982719 18.2008 3.26597 20.484L3.47811 20.2719L3.69024 20.0598C1.51951 17.889 0.3 14.9449 0.3 11.875H0ZM3.47811 20.2719L3.26597 20.484C4.39653 21.6146 5.73869 22.5114 7.21583 23.1232L7.33063 22.8461L7.44544 22.5689C6.0411 21.9872 4.76508 21.1346 3.69024 20.0598L3.47811 20.2719ZM7.33063 22.8461L7.21583 23.1232C8.69297 23.7351 10.2762 24.05 11.875 24.05V23.75V23.45C10.3549 23.45 8.84978 23.1506 7.44544 22.5689L7.33063 22.8461ZM11.875 23.75V24.05C15.104 24.05 18.2008 22.7673 20.484 20.484L20.2719 20.2719L20.0598 20.0598C17.889 22.2305 14.9449 23.45 11.875 23.45V23.75ZM20.2719 20.2719L20.484 20.484C22.7673 18.2008 24.05 15.104 24.05 11.875H23.75H23.45C23.45 14.9449 22.2305 17.889 20.0598 20.0598L20.2719 20.2719ZM23.75 11.875H24.05C24.05 10.2762 23.7351 8.69297 23.1232 7.21583L22.8461 7.33063L22.5689 7.44544C23.1506 8.84978 23.45 10.3549 23.45 11.875H23.75ZM22.8461 7.33063L23.1232 7.21583C22.5114 5.73869 21.6146 4.39653 20.484 3.26597L20.2719 3.47811L20.0598 3.69024C21.1346 4.76508 21.9872 6.0411 22.5689 7.44544L22.8461 7.33063ZM20.2719 3.47811L20.484 3.26597C19.3535 2.13542 18.0113 1.23862 16.5342 0.626767L16.4194 0.903931L16.3046 1.18109C17.7089 1.76279 18.9849 2.6154 20.0598 3.69024L20.2719 3.47811ZM16.4194 0.903931L16.5342 0.626767C15.057 0.0149157 13.4738 -0.3 11.875 -0.3V0V0.3C13.3951 0.3 14.9002 0.599396 16.3046 1.18109L16.4194 0.903931Z" fill="#1E1E1E" mask="url(#path-1-inside-1_1_626)"/>
</svg>
