<svg width="53" height="59" viewBox="0 0 53 59" fill="none" xmlns="http://www.w3.org/2000/svg">
<path d="M26.707 0.0317666L26.5959 0L26.4849 0.0317666L0.0966914 6.88668L0.00148835 22.1197C-0.0461151 27.0864 1.04875 31.9895 3.20677 36.4483C4.50793 39.0824 6.0471 41.5896 7.80843 43.938C13.0924 51.015 19.7252 55.9817 26.1199 58.2508C26.1516 58.2825 26.1834 58.2825 26.231 58.2825C26.2627 58.2825 26.3103 58.2825 26.3421 58.2508C32.7686 56.0769 39.4648 51.1896 44.8281 44.1761C46.6211 41.8435 48.192 39.3522 49.5091 36.7498C51.7306 32.3068 52.8889 27.4196 52.9048 22.4688L53 7.23572L26.707 0.0317666ZM40.0201 35.0203L26.4055 42.7003L12.9338 34.7506L13.0924 19.1366L26.7229 11.4724L40.1947 19.4063L40.036 35.0203H40.0201Z" fill="white"/>
</svg>
