<svg width="149" height="141" viewBox="0 0 149 141" fill="none" xmlns="http://www.w3.org/2000/svg" xmlns:xlink="http://www.w3.org/1999/xlink">
<g clip-path="url(#clip0_1_644)">
<circle cx="73.4134" cy="72.0624" r="40.091" transform="rotate(35.0084 73.4134 72.0624)" fill="#2B2B2B"/>
<circle cx="73.4134" cy="72.0624" r="40.091" transform="rotate(35.0084 73.4134 72.0624)" fill="url(#pattern0_1_644)" fill-opacity="0.06"/>
<circle cx="73.4262" cy="72.0259" r="57.8633" transform="rotate(102.781 73.4262 72.0259)" stroke="#2B2B2B" stroke-width="0.826619"/>
<path d="M32.4123 41.7929C32.3333 41.7445 32.2424 41.7664 32.194 41.8454L27.3896 49.6974C27.3412 49.7763 27.3631 49.8673 27.4421 49.9156L27.9272 50.2124C27.9611 50.2331 28.0018 50.2425 28.0564 50.2294L29.002 50.0017C29.0565 49.9886 29.0885 49.9616 29.1092 49.9278L33.5478 42.6738C33.5962 42.5948 33.5743 42.5039 33.4953 42.4556L32.4123 41.7929ZM32.1723 53.7402L25.6741 49.7641C25.5952 49.7158 25.5733 49.6249 25.6216 49.5459L30.7505 41.1637C30.861 40.9832 31.0322 40.8554 31.2504 40.8029L32.7779 40.4351C32.9961 40.3825 33.2068 40.4184 33.3873 40.5288L34.3236 41.1018C34.4026 41.1501 34.4245 41.241 34.3762 41.32L34.1277 41.7261C34.0794 41.8051 34.1013 41.896 34.1802 41.9443L34.6653 42.2412C34.6992 42.2619 34.7399 42.2713 34.7945 42.2582L35.7401 42.0305C35.7946 42.0173 35.8354 42.0268 35.8692 42.0475L36.8846 42.6688C37.0651 42.7792 37.1929 42.9504 37.2454 43.1686L37.6132 44.6961C37.6658 44.9144 37.6299 45.125 37.5194 45.3055L32.3905 53.6877C32.3422 53.7667 32.2513 53.7886 32.1723 53.7402ZM30.6348 51.8691C30.6686 51.8898 30.7094 51.8993 30.7639 51.8861L31.7095 51.6584C31.7641 51.6453 31.7961 51.6184 31.8168 51.5845L36.2554 44.3305C36.3037 44.2515 36.2818 44.1606 36.2029 44.1123L35.1198 43.4496C35.0409 43.4013 34.9499 43.4232 34.9016 43.5021L30.0971 51.3541C30.0488 51.4331 30.0707 51.524 30.1497 51.5723L30.6348 51.8691ZM42.3438 31.5399C42.2878 31.5371 42.2495 31.5539 42.22 31.5805L36.4315 36.8135C36.4021 36.8401 36.3815 36.8766 36.3787 36.9326L36.3297 37.904C36.3269 37.96 36.3437 37.9983 36.3703 38.0278L36.7517 38.4496C36.8138 38.5183 36.9072 38.523 36.9759 38.4609L43.8044 32.2878C43.873 32.2257 43.8777 32.1323 43.8157 32.0636L43.4343 31.6417C43.4077 31.6123 43.3712 31.5917 43.3152 31.5889L42.3438 31.5399ZM39.0617 42.7799L35.1325 38.4336C34.9906 38.2766 34.9165 38.0762 34.9278 37.8521L35.0068 36.2829C35.0181 36.0587 35.1121 35.8668 35.2691 35.7249L41.2538 30.3145C41.4108 30.1726 41.6112 30.0984 41.8353 30.1097L43.4045 30.1888C43.6287 30.2001 43.8206 30.2941 43.9625 30.451L47.8917 34.7973C47.9538 34.866 47.949 34.9594 47.8804 35.0215L46.6442 36.139C46.5755 36.2011 46.4821 36.1964 46.42 36.1278L45.5065 35.1172C45.4798 35.0878 45.4631 35.0495 45.4659 34.9934L45.5148 34.022C45.5177 33.966 45.5009 33.9277 45.4743 33.8983L45.0929 33.4764C45.0308 33.4077 44.9374 33.403 44.8687 33.4651L38.0402 39.6383C37.9715 39.7004 37.9668 39.7938 38.0289 39.8624L38.4103 40.2843C38.4369 40.3137 38.4733 40.3343 38.5294 40.3371L39.5008 40.3861C39.5568 40.3889 39.5932 40.4095 39.6198 40.4389L40.5334 41.4494C40.5955 41.5181 40.5908 41.6115 40.5221 41.6736L39.2859 42.7912C39.2172 42.8533 39.1238 42.8485 39.0617 42.7799ZM46.7391 26.8315C46.814 26.6199 46.9588 26.4629 47.1498 26.3717L56.0177 22.1376C56.1012 22.0977 56.1894 22.1289 56.2293 22.2124L57.1182 24.0743C57.1581 24.1579 57.1269 24.246 57.0434 24.2859L56.5302 24.531C56.4944 24.5481 56.4529 24.5532 56.4 24.5345L55.483 24.2102C55.4301 24.1915 55.3886 24.1967 55.3528 24.2138L46.9623 28.2199C46.8788 28.2598 46.8476 28.348 46.8875 28.4315L47.1325 28.9447C47.1496 28.9805 47.1787 29.0106 47.2316 29.0293L48.1485 29.3537C48.2014 29.3724 48.2304 29.4025 48.2475 29.4383L49.5183 32.0998C49.5582 32.1834 49.6464 32.2146 49.7299 32.1747L57.4043 28.5105C57.4401 28.4934 57.4702 28.4643 57.4889 28.4114L57.8132 27.4945C57.8319 27.4416 57.8621 27.4125 57.8979 27.3954L58.4111 27.1504C58.4946 27.1105 58.5828 27.1417 58.6227 27.2252L59.5117 29.0871C59.5516 29.1707 59.5204 29.2589 59.4368 29.2987L50.5689 33.5328C50.378 33.624 50.1648 33.6379 49.9531 33.563L48.4719 33.0392C48.2603 32.9643 48.1032 32.8195 48.012 32.6285L46.2455 28.9286C46.1543 28.7376 46.1404 28.5244 46.2152 28.3128L46.7391 26.8315ZM70.8899 19.2451C70.9813 19.2305 71.057 19.2853 71.0716 19.3767L71.5289 22.2369C71.5394 22.3022 71.4976 22.3758 71.4344 22.3993L68.5 23.565C68.4258 23.6036 68.4425 23.7081 68.525 23.7217L71.6766 23.9143C71.744 23.9169 71.8067 23.9739 71.8171 24.0392L72.2744 26.8993C72.289 26.9907 72.2341 27.0665 72.1427 27.0811L70.889 27.2816C70.7975 27.2962 70.7218 27.2413 70.7072 27.1499L70.4357 25.4521C70.4253 25.3868 70.3626 25.3298 70.2952 25.3272L65.9495 24.8702L65.8973 24.8785L61.3764 25.5879C61.285 25.6026 61.2301 25.6783 61.2447 25.7697L61.3345 26.3313C61.3408 26.3705 61.3601 26.4076 61.4056 26.4405L62.1933 27.011C62.2387 27.0439 62.258 27.081 62.2643 27.1202L62.4794 28.4654C62.494 28.5568 62.4391 28.6326 62.3477 28.6472L60.7021 28.9103C60.6107 28.9249 60.535 28.87 60.5204 28.7786L59.3176 21.256C59.303 21.1646 59.3579 21.0889 59.4493 21.0743L61.0948 20.8112C61.1863 20.7965 61.262 20.8514 61.2766 20.9428L61.4917 22.288C61.498 22.3272 61.4912 22.3685 61.4583 22.4139L60.8877 23.2016C60.8548 23.247 60.848 23.2883 60.8543 23.3275L60.9441 23.8891C60.9587 23.9805 61.0344 24.0354 61.1258 24.0207L65.6446 23.2983L65.6838 23.292L69.6813 21.4876C69.7445 21.4641 69.7863 21.3904 69.7759 21.3251L69.5044 19.6273C69.4898 19.5359 69.5447 19.4602 69.6361 19.4455L70.8899 19.2451ZM88.7994 23.0653C88.7826 23.1564 88.7057 23.2094 88.6146 23.1927L85.3235 22.5881C85.2845 22.581 85.2479 22.5608 85.216 22.5146L84.6638 21.7139C84.632 21.6677 84.5954 21.6475 84.5563 21.6404L83.997 21.5376C83.9059 21.5209 83.8289 21.574 83.8122 21.665L82.615 28.1821C82.5982 28.2732 82.5212 28.3263 82.4302 28.3096L81.1814 28.0801C81.0903 28.0634 81.0372 27.9864 81.054 27.8954L82.2512 21.3783C82.2679 21.2872 82.2148 21.2102 82.1238 21.1935L81.5644 21.0907C81.5254 21.0836 81.484 21.0894 81.4378 21.1212L80.6371 21.6734C80.5909 21.7053 80.5495 21.7111 80.5105 21.7039L77.2194 21.0993C77.1283 21.0826 77.0752 21.0056 77.092 20.9146L77.3572 19.4707C77.374 19.3796 77.451 19.3265 77.542 19.3432L88.9372 21.4366C89.0283 21.4533 89.0814 21.5303 89.0646 21.6214L88.7994 23.0653ZM97.882 32.658C97.9646 32.6997 98.0535 32.6704 98.0952 32.5878L100.096 28.6197C100.138 28.537 100.108 28.4482 100.026 28.4065L92.5147 24.6195C92.4438 24.5837 92.3432 24.6071 92.3015 24.6897L90.3008 28.6578C90.2591 28.7404 90.3002 28.8352 90.371 28.8709L97.882 32.658ZM88.961 27.7897L90.8069 24.1287C90.9022 23.9398 91.0742 23.8043 91.2755 23.7281L92.7795 23.2422C92.9809 23.166 93.1938 23.1844 93.3827 23.2797L100.587 26.912C100.776 27.0073 100.929 27.1734 100.987 27.3806L101.491 28.8787C101.549 29.086 101.531 29.2988 101.436 29.4878L99.5897 33.1488C99.4944 33.3377 99.3343 33.4792 99.1329 33.5554L97.6289 34.0412C97.4275 34.1175 97.2029 34.093 97.0139 33.9978L89.81 30.3655C89.6211 30.2702 89.4796 30.1101 89.4212 29.9029L88.9176 28.4047C88.8591 28.1975 88.8658 27.9787 88.961 27.7897ZM114.46 41.2316C114.393 41.2958 114.3 41.294 114.235 41.2273L111.915 38.8166C111.887 38.7881 111.869 38.7503 111.87 38.6942L111.889 37.7217C111.89 37.6656 111.872 37.6279 111.844 37.5993L111.45 37.1896C111.386 37.1229 111.292 37.1211 111.226 37.1853L106.452 41.7806C106.385 41.8449 106.292 41.8431 106.227 41.7764L105.347 40.8616C105.283 40.7949 105.284 40.7014 105.351 40.6372L110.125 36.0419C110.192 35.9777 110.193 35.8842 110.129 35.8175L109.735 35.4077C109.707 35.3792 109.67 35.3597 109.614 35.3587L108.642 35.3402C108.586 35.3391 108.549 35.3197 108.521 35.2911L106.2 32.8804C106.136 32.8137 106.138 32.7202 106.205 32.656L107.262 31.6378C107.329 31.5736 107.423 31.5754 107.487 31.6421L115.522 39.9891C115.586 40.0558 115.584 40.1493 115.517 40.2135L114.46 41.2316ZM116.256 54.3073C116.299 54.3893 116.388 54.4171 116.47 54.3741L120.406 52.3107C120.488 52.2677 120.516 52.1784 120.473 52.0964L116.567 44.6465C116.53 44.5763 116.435 44.5367 116.353 44.5797L112.417 46.6431C112.335 46.6861 112.314 46.7871 112.35 46.8574L116.256 54.3073ZM111.833 45.1576L115.464 43.2539C115.651 43.1556 115.87 43.1455 116.078 43.2006L117.584 43.6804C117.792 43.7356 117.955 43.8745 118.053 44.0619L121.799 51.2072C121.897 51.3946 121.925 51.6189 121.852 51.8214L121.39 53.333C121.317 53.5355 121.178 53.6979 120.991 53.7962L117.36 55.6999C117.172 55.7982 116.96 55.82 116.752 55.7649L115.246 55.2851C115.038 55.2299 114.869 55.0794 114.771 54.8919L111.025 47.7466C110.926 47.5592 110.905 47.3466 110.978 47.1441L111.439 45.6326C111.512 45.43 111.645 45.2559 111.833 45.1576ZM124.085 66.441C124.176 66.4228 124.228 66.345 124.21 66.2542L122.403 57.228C122.385 57.1372 122.307 57.0853 122.216 57.1035L121.658 57.2151C121.62 57.2229 121.583 57.2437 121.552 57.2904L121.013 58.0997C120.982 58.1464 120.945 58.1672 120.906 58.1749L120.349 58.2866C120.258 58.3047 120.206 58.3826 120.224 58.4733L121.875 66.7214C121.893 66.8122 121.971 66.8641 122.062 66.8459L124.085 66.441ZM116.147 57.509L123.617 56.0139C123.707 55.9957 123.785 56.0476 123.803 56.1384L125.732 65.7741C125.774 65.9816 125.735 66.1917 125.61 66.3785L124.739 67.6859C124.614 67.8727 124.435 67.9894 124.228 68.0309L122.542 68.3684C122.335 68.4099 122.124 68.371 121.938 68.2466L120.63 67.3752C120.443 67.2508 120.327 67.0718 120.285 66.8643L118.668 58.7848C118.65 58.694 118.572 58.6422 118.481 58.6603L116.458 59.0653C116.367 59.0834 116.29 59.0316 116.271 58.9408L116.022 57.6958C116.004 57.605 116.056 57.5272 116.147 57.509ZM107.054 110.704C106.986 110.642 106.981 110.549 107.043 110.48L109.292 108.002C109.319 107.973 109.355 107.952 109.411 107.95L110.383 107.903C110.439 107.9 110.475 107.879 110.502 107.85L110.884 107.429C110.946 107.36 110.942 107.267 110.873 107.205L105.966 102.752C105.898 102.69 105.893 102.596 105.955 102.528L106.808 101.587C106.871 101.519 106.964 101.514 107.033 101.576L111.94 106.029C112.008 106.092 112.102 106.087 112.164 106.018L112.546 105.597C112.573 105.568 112.589 105.53 112.587 105.474L112.54 104.502C112.537 104.446 112.554 104.408 112.58 104.378L114.829 101.901C114.891 101.832 114.985 101.827 115.053 101.89L116.14 102.876C116.209 102.938 116.214 103.032 116.151 103.1L108.365 111.68C108.303 111.749 108.21 111.753 108.141 111.691L107.054 110.704ZM94.7849 118.83C94.7369 118.751 94.7593 118.66 94.8385 118.612L104.072 113.026C104.152 112.978 104.174 112.887 104.126 112.808L103.832 112.321C103.811 112.287 103.779 112.26 103.725 112.247L102.78 112.014C102.726 112.001 102.685 112.01 102.651 112.031L94.6959 116.844C94.6167 116.892 94.5259 116.869 94.4779 116.79L93.8207 115.704C93.7727 115.625 93.7951 115.534 93.8743 115.486L102.429 110.31C102.508 110.262 102.531 110.171 102.483 110.092L102.188 109.605C102.168 109.571 102.136 109.544 102.081 109.531L101.137 109.298C101.083 109.285 101.042 109.294 101.008 109.315L92.3738 114.539C92.2946 114.587 92.2037 114.564 92.1558 114.485L91.4986 113.399C91.4506 113.32 91.473 113.229 91.5522 113.181L101.465 107.183C101.544 107.135 101.635 107.158 101.683 107.237L105.626 113.755C105.674 113.834 105.652 113.925 105.573 113.973L95.6601 119.97C95.5809 120.018 95.4901 119.996 95.4421 119.917L94.7849 118.83ZM91.1309 121.439C91.0176 121.633 90.8458 121.76 90.6411 121.814L81.1353 124.305C81.0457 124.328 80.965 124.281 80.9415 124.191L80.4185 122.196C80.395 122.106 80.4422 122.025 80.5318 122.002L81.0819 121.858C81.1203 121.848 81.162 121.85 81.2105 121.879L82.0501 122.37C82.0985 122.398 82.1403 122.401 82.1787 122.391L91.1728 120.034C91.2623 120.01 91.3095 119.929 91.2861 119.84L91.1419 119.29C91.1318 119.251 91.109 119.216 91.0605 119.188L90.2209 118.697C90.1725 118.669 90.1496 118.634 90.1396 118.595L89.3919 115.742C89.3684 115.653 89.2877 115.606 89.1981 115.629L80.9717 117.785C80.9333 117.795 80.8983 117.818 80.8699 117.866L80.379 118.706C80.3507 118.754 80.3156 118.777 80.2773 118.787L79.7271 118.931C79.6376 118.955 79.5568 118.908 79.5334 118.818L79.0103 116.822C78.9869 116.733 79.0341 116.652 79.1236 116.628L88.6295 114.137C88.8342 114.084 89.0462 114.11 89.24 114.223L90.5963 115.017C90.7901 115.13 90.9171 115.302 90.9708 115.506L92.0101 119.472C92.0637 119.677 92.0373 119.889 91.924 120.083L91.1309 121.439ZM67.8122 124.247C67.8094 124.339 67.7413 124.403 67.6487 124.4L65.9831 124.349C65.8905 124.346 65.8264 124.278 65.8293 124.186L66.0627 116.571C66.0655 116.479 66.1336 116.415 66.2262 116.417L67.8918 116.468C67.9844 116.471 68.0484 116.539 68.0456 116.632L68.0039 117.994C68.0027 118.033 67.9882 118.072 67.9473 118.111L67.2389 118.777C67.198 118.816 67.1835 118.855 67.1823 118.895L67.1649 119.463C67.1621 119.556 67.2261 119.624 67.3187 119.627L76.5196 119.909C76.6121 119.911 76.6803 119.847 76.6831 119.755L76.7005 119.186C76.7017 119.147 76.6897 119.107 76.6513 119.066L75.9849 118.357C75.9465 118.316 75.9345 118.276 75.9357 118.237L75.9774 116.875C75.9803 116.783 76.0484 116.718 76.1409 116.721L77.8066 116.772C77.8991 116.775 77.9632 116.843 77.9604 116.936L77.727 124.55C77.7242 124.643 77.656 124.707 77.5635 124.704L75.8978 124.653C75.8053 124.65 75.7412 124.582 75.744 124.49L75.7858 123.128C75.787 123.088 75.8014 123.049 75.8423 123.011L76.5508 122.344C76.5917 122.306 76.6061 122.267 76.6073 122.227L76.6247 121.658C76.6276 121.566 76.5635 121.498 76.471 121.495L67.2701 121.213C67.1775 121.21 67.1094 121.274 67.1066 121.367L67.0891 121.935C67.0879 121.975 67.0999 122.015 67.1384 122.056L67.8047 122.764C67.8432 122.805 67.8552 122.845 67.854 122.885L67.8122 124.247ZM53.3339 118.858C53.3047 118.946 53.3467 119.029 53.4345 119.059L62.1716 121.957C62.2595 121.986 62.3431 121.944 62.3722 121.856L62.5513 121.316C62.5638 121.279 62.5637 121.237 62.5386 121.187L62.1023 120.317C62.0771 120.267 62.0436 120.242 62.006 120.23L53.9342 117.552C53.8463 117.523 53.7627 117.565 53.7336 117.653L53.3339 118.858ZM65.0242 116.382L62.6258 123.612C62.5966 123.7 62.513 123.742 62.4252 123.713L53.098 120.619C52.8972 120.553 52.7339 120.415 52.6332 120.214L51.9285 118.81C51.8278 118.609 51.815 118.396 51.8816 118.195L52.2272 117.153C52.2563 117.065 52.3399 117.023 52.4278 117.053L52.8797 117.202C52.9676 117.232 53.0512 117.19 53.0803 117.102L53.2594 116.562C53.2719 116.524 53.2718 116.482 53.2466 116.432L52.8104 115.563C52.7852 115.513 52.7852 115.471 52.7977 115.433L53.1724 114.304C53.239 114.103 53.3768 113.939 53.5774 113.839L54.9817 113.134C55.1823 113.033 55.3956 113.021 55.5964 113.087L64.9235 116.181C65.0114 116.21 65.0534 116.294 65.0242 116.382ZM63.5506 118.303C63.5631 118.266 63.5631 118.224 63.5379 118.174L63.1017 117.305C63.0765 117.254 63.043 117.229 63.0053 117.217L54.9336 114.539C54.8457 114.51 54.7621 114.552 54.7329 114.64L54.3332 115.845C54.3041 115.933 54.346 116.017 54.4339 116.046L63.171 118.944C63.2589 118.973 63.3424 118.931 63.3716 118.843L63.5506 118.303ZM41.095 111.511C41.105 111.566 41.13 111.599 41.1626 111.622L47.5721 116.073C47.6047 116.095 47.6448 116.107 47.7001 116.097L48.6572 115.925C48.7125 115.915 48.746 115.89 48.7686 115.857L49.093 115.39C49.1458 115.314 49.1292 115.222 49.0531 115.169L41.4921 109.918C41.4161 109.866 41.324 109.882 41.2712 109.958L40.9468 110.425C40.9242 110.458 40.9124 110.498 40.9224 110.553L41.095 111.511ZM52.7864 112.158L49.4446 116.97C49.3239 117.144 49.1455 117.262 48.9246 117.302L47.3784 117.581C47.1575 117.62 46.9493 117.572 46.7755 117.452L40.1487 112.85C39.9749 112.729 39.8572 112.551 39.8174 112.33L39.5385 110.784C39.4987 110.563 39.5467 110.355 39.6674 110.181L43.0092 105.368C43.062 105.292 43.1541 105.276 43.2301 105.329L44.5989 106.279C44.675 106.332 44.6916 106.424 44.6388 106.5L43.8618 107.619C43.8391 107.652 43.8056 107.677 43.7504 107.687L42.7932 107.859C42.738 107.869 42.7045 107.894 42.6819 107.927L42.3575 108.394C42.3047 108.47 42.3213 108.562 42.3973 108.615L49.9584 113.865C50.0344 113.918 50.1265 113.901 50.1793 113.825L50.5036 113.358C50.5263 113.326 50.538 113.286 50.5281 113.23L50.3555 112.273C50.3455 112.218 50.3573 112.178 50.3799 112.145L51.1569 111.026C51.2097 110.95 51.3017 110.934 51.3778 110.986L52.7466 111.937C52.8226 111.99 52.8392 112.082 52.7864 112.158ZM29.844 101.371C29.7718 101.429 29.6788 101.418 29.6209 101.346L28.826 100.356C28.768 100.284 28.7782 100.191 28.8504 100.133L34.791 95.3637C34.8632 95.3058 34.9561 95.316 35.0141 95.3881L36.8605 97.6881C36.8853 97.719 36.8999 97.7582 36.8938 97.814L35.9339 106.59C35.9278 106.646 35.9424 106.685 35.9672 106.716L36.8117 107.768C36.8531 107.82 36.9399 107.801 36.9563 107.737L37.1487 106.751C37.1631 106.706 37.1755 106.679 37.2064 106.654L41.2493 103.408C41.3215 103.35 41.4145 103.36 41.4724 103.433L42.2673 104.423C42.3252 104.495 42.3151 104.588 42.2429 104.646L36.3023 109.415C36.2301 109.473 36.1372 109.463 36.0792 109.391L34.2328 107.091C34.2079 107.06 34.1934 107.021 34.1995 106.965L35.1594 98.1888C35.1655 98.133 35.1509 98.0938 35.1261 98.0628L34.2815 97.0109C34.2401 96.9593 34.1534 96.978 34.137 97.0421L33.9445 98.0277C33.9302 98.0732 33.9178 98.1 33.8869 98.1249L29.844 101.371ZM22.6242 86.5195C22.5892 86.4338 22.6254 86.3475 22.7111 86.3126L25.3928 85.218C25.454 85.193 25.5353 85.217 25.5725 85.2732L27.3738 87.8664C27.4283 87.9299 27.5262 87.8899 27.5207 87.8065L26.9929 84.6934C26.9802 84.6272 27.0214 84.5532 27.0826 84.5282L29.7643 83.4337C29.8501 83.3987 29.9363 83.4349 29.9713 83.5206L30.4511 84.6962C30.4861 84.7819 30.4498 84.8681 30.3641 84.9031L28.7722 85.5528C28.711 85.5778 28.6698 85.6518 28.6825 85.718L29.2238 90.0541L29.2438 90.103L30.9609 94.3449C30.9959 94.4306 31.0821 94.4668 31.1678 94.4318L31.6944 94.2169C31.7311 94.2019 31.7628 94.1747 31.7846 94.1229L32.1614 93.2263C32.1832 93.1746 32.2149 93.1473 32.2516 93.1323L33.5129 92.6175C33.5986 92.5826 33.6848 92.6188 33.7198 92.7045L34.3496 94.2474C34.3845 94.3331 34.3483 94.4193 34.2626 94.4543L27.2094 97.3332C27.1237 97.3682 27.0374 97.3319 27.0025 97.2462L26.3727 95.7033C26.3377 95.6176 26.374 95.5314 26.4597 95.4964L27.7209 94.9816C27.7577 94.9666 27.7994 94.9639 27.8511 94.9856L28.7478 95.3625C28.7995 95.3842 28.8412 95.3815 28.878 95.3665L29.4045 95.1515C29.4902 95.1166 29.5265 95.0303 29.4915 94.9446L27.7621 90.7078L27.7472 90.6711L25.0824 87.1875C25.0452 87.1312 24.964 87.1072 24.9028 87.1322L23.3109 87.782C23.2252 87.817 23.139 87.7807 23.104 87.695L22.6242 86.5195Z" fill="#2B2B2B"/>
<path d="M71.4115 90.65L76.0213 90.65L76.0213 62.9911L80.6311 62.9911L80.6311 58.3813L76.0213 58.3813L76.0213 53.7715L71.4115 53.7715L71.4115 58.3813L66.8017 58.3813L66.8017 62.9911L71.4115 62.9911L71.4115 90.65ZM62.1918 67.6009L62.1918 62.9911L66.8017 62.9911L66.8017 67.6009L62.1918 67.6009ZM62.1918 67.6009L62.1918 72.2108L57.582 72.2108L57.582 67.6009L62.1918 67.6009ZM85.2409 67.6009L85.2409 62.9911L80.6311 62.9911L80.6311 67.6009L85.2409 67.6009ZM85.2409 67.6009L85.2409 72.2108L89.8508 72.2108L89.8508 67.6009L85.2409 67.6009Z" fill="white"/>
</g>
<defs>
<clipPath id="clip0_1_644">
<rect width="149" height="141" fill="white"/>
</clipPath>
<pattern id="pattern0_1_644" patternUnits="userSpaceOnUse" patternTransform="matrix(5.95638 0 0 6.55005 72.5136 71.073)" preserveAspectRatio="none" viewBox="0 0 147.49 162.19" width="1" height="1">
<g id="pattern0_1_644_inner">
<path d="M22.4535 0.0267073L22.3601 0L22.2667 0.0267073L0.0812917 5.78986L0.0012513 18.5968C-0.0387705 22.7724 0.881716 26.8946 2.69604 30.6433C3.78997 32.8579 5.084 34.9657 6.5648 36.9401C11.0072 42.89 16.5836 47.0657 21.9599 48.9734C21.9866 49.0001 22.0132 49 22.0533 49C22.0799 49 22.12 49.0001 22.1467 48.9734C27.5496 47.1457 33.1793 43.0368 37.6885 37.1403C39.1959 35.1792 40.5166 33.0847 41.6239 30.8968C43.4916 27.1614 44.4655 23.0525 44.4788 18.8903L44.5589 6.08331L22.4535 0.0267073Z" fill="white"/>
</g>
</pattern></defs>
</svg>
