<svg width="369" height="96" viewBox="0 0 369 96" fill="none" xmlns="http://www.w3.org/2000/svg">
<path d="M43.9249 0.0522464L43.7421 0L43.5595 0.0522464L0.159028 11.3265L0.00244788 36.3802C-0.0758452 44.5488 1.72487 52.6129 5.27416 59.9464C7.41417 64.2786 9.94563 68.4021 12.8425 72.2645C21.533 83.9041 32.4419 92.0728 42.9593 95.8047C43.0114 95.8569 43.0637 95.8568 43.142 95.8568C43.1941 95.8568 43.2725 95.8569 43.3247 95.8047C53.8942 92.2293 64.9074 84.1913 73.7285 72.6561C76.6775 68.8197 79.2611 64.7222 81.4272 60.4422C85.0809 53.1349 86.9861 45.0968 87.0122 36.9543L87.1688 11.9005L43.9249 0.0522464ZM65.8209 57.5977L43.429 70.2289L21.2721 57.154L21.5331 31.4738L43.951 18.8686L66.1079 31.9174L65.8469 57.5977H65.8209Z" fill="white"/>
<path d="M24.6679 33.3022L24.4591 55.3548L43.4844 66.5767L62.7184 55.7461L62.9271 33.6935L43.9019 22.4716L24.6679 33.3022ZM53.5319 57.4164L48.208 57.4687L45.4939 52.9016C45.5721 52.6928 45.6243 52.4579 45.6243 52.223C45.6243 51.962 45.6244 51.675 45.52 51.4401C45.4417 51.1791 45.2851 50.9442 45.1024 50.7615C44.9197 50.5528 44.7109 50.3962 44.45 50.2918C44.2151 50.1874 43.928 50.1091 43.667 50.1091C43.406 50.1091 43.119 50.1613 42.8841 50.2657C42.6231 50.3701 42.4143 50.5266 42.2055 50.7093C42.0228 50.892 41.8663 51.1269 41.7619 51.3879C41.6575 51.6488 41.6053 51.9098 41.6314 52.1708C41.6314 52.3273 41.6314 52.4578 41.6836 52.6144L39.0738 57.286L33.7499 57.3381L31.0357 52.745L33.6455 48.1256L38.9694 48.0734C38.9694 48.0734 39.0477 48.1517 39.1782 48.2822C39.387 48.491 39.648 48.6737 39.935 48.7781C40.2221 48.8825 40.5353 48.9346 40.8223 48.8824C41.1355 48.8563 41.4226 48.752 41.6575 48.5954C41.9185 48.4388 42.1272 48.23 42.2838 47.9691C42.4404 47.7081 42.5448 47.421 42.5709 47.1339C42.597 46.8208 42.5709 46.5336 42.4665 46.2465C42.3621 45.9595 42.2055 45.6985 41.9706 45.4898C41.7619 45.281 41.4748 45.1244 41.1877 45.0461C41.0834 44.9939 41.005 44.9418 40.9006 44.9157L38.3431 40.2702L41.1355 35.7292L46.4595 35.8336L49.0171 40.5052L46.2246 45.0461H46.068C45.807 45.1505 45.5461 45.3071 45.3634 45.5159C45.1546 45.7247 45.0241 45.9595 44.9197 46.2465C44.8153 46.5075 44.7892 46.7946 44.8153 47.0817C44.8414 47.3688 44.9458 47.6297 45.0763 47.8907C45.2329 48.1256 45.4156 48.3606 45.6504 48.5172C45.8853 48.6738 46.1463 48.7781 46.4334 48.8303C46.7205 48.8825 47.0075 48.8564 47.2946 48.7781C47.5817 48.6998 47.8166 48.5692 48.0515 48.3866V48.3345L53.3753 48.2822L56.0895 52.8493L53.4797 57.4687L53.5319 57.4164ZM58.9081 32.989L29.0784 32.8063L43.9802 24.4811L58.9081 33.0151V32.989Z" fill="white"/>
<path d="M116.601 35.9884H104.596V30.247H135.287V35.9884H123.308V66.7838H116.601V35.9884Z" fill="white"/>
<path d="M162.743 54.9353H141.108C141.447 56.8665 142.517 58.589 144.083 59.7373C145.831 60.99 147.919 61.6164 150.033 61.5381C151.416 61.5903 152.8 61.3292 154.104 60.8072C155.383 60.2853 156.558 59.5023 157.549 58.5106L160.994 62.5298C159.742 64.0434 158.123 65.2178 156.297 65.9225C153.974 66.7837 151.495 67.1751 149.015 67.0446C146.536 66.9402 144.109 66.3139 141.865 65.2439C139.646 64.0956 137.767 62.347 136.515 60.1548C135.236 57.9104 134.583 55.3528 134.609 52.7691C134.583 50.2115 135.21 47.6801 136.436 45.4357C137.637 43.2956 139.385 41.5211 141.525 40.3467C143.77 39.1201 146.301 38.4677 148.859 38.5199C151.39 38.4677 153.87 39.094 156.088 40.3206C158.176 41.495 159.898 43.2436 161.046 45.3836C162.273 47.7063 162.899 50.29 162.821 52.9258C162.873 53.4478 162.821 54.074 162.717 54.9353H162.743ZM143.665 45.6706C142.23 46.9233 141.29 48.698 141.056 50.6031H156.714C156.505 48.698 155.592 46.9494 154.183 45.6967C152.695 44.4962 150.842 43.8176 148.911 43.8176C146.98 43.8176 145.153 44.4701 143.639 45.6967L143.665 45.6706Z" fill="white"/>
<path d="M173.998 65.3239C171.78 64.1495 169.953 62.401 168.674 60.2349C167.369 57.9905 166.717 55.4328 166.769 52.8492C166.717 50.2655 167.396 47.734 168.674 45.4896C169.927 43.3235 171.78 41.5749 173.972 40.4266C176.347 39.1739 179.009 38.5476 181.697 38.5998C184.176 38.5476 186.629 39.1218 188.848 40.2701C190.857 41.3401 192.475 43.0365 193.493 45.0721L188.535 47.995C187.804 46.7684 186.786 45.7767 185.533 45.0721C184.333 44.4197 182.976 44.0804 181.619 44.1065C180.523 44.1065 179.427 44.2891 178.409 44.7067C177.391 45.1243 176.451 45.7506 175.668 46.5336C174.155 48.2821 173.32 50.5526 173.32 52.8753C173.32 55.198 174.155 57.4685 175.668 59.217C176.973 60.4436 178.617 61.2265 180.392 61.4614C182.167 61.6963 183.941 61.4091 185.533 60.6001C186.76 59.9216 187.778 58.9299 188.508 57.7033L193.467 60.6262C192.423 62.688 190.805 64.3583 188.796 65.4283C186.603 66.6027 184.124 67.2028 181.645 67.1245C178.983 67.1506 176.373 66.5244 173.998 65.2978V65.3239Z" fill="white"/>
<path d="M222.826 41.6797C224.966 43.7415 226.036 46.7949 226.036 50.8139V66.7859H219.59V51.6491C219.72 49.6657 219.094 47.7084 217.841 46.1686C217.215 45.5162 216.432 45.0203 215.597 44.7072C214.762 44.394 213.848 44.2374 212.961 44.3156C211.917 44.2634 210.899 44.42 209.907 44.7854C208.942 45.1508 208.055 45.725 207.324 46.4818C205.836 48.2042 205.105 50.4487 205.262 52.7192V66.8119H198.79V28.1352H205.262V42.1756C206.358 41.0012 207.715 40.114 209.203 39.5399C210.873 38.9135 212.674 38.6003 214.448 38.6264C215.988 38.5481 217.502 38.783 218.963 39.3049C220.399 39.8269 221.73 40.662 222.852 41.7059L222.826 41.6797Z" fill="white"/>
<path d="M265.202 51.0991C266.403 52.7693 267.029 54.8048 266.951 56.8665C267.029 58.3019 266.716 59.7112 266.09 60.99C265.463 62.2688 264.524 63.3649 263.376 64.2C261.001 65.9224 257.425 66.7838 252.832 66.7838H234.825V30.247H251.762C256.042 30.247 259.331 31.0821 261.627 32.7784C262.723 33.5613 263.637 34.6052 264.237 35.8318C264.837 37.0584 265.124 38.3894 265.098 39.7465C265.15 41.4428 264.733 43.087 263.898 44.5485C263.089 45.9317 261.914 47.0539 260.479 47.7846C262.358 48.3848 264.002 49.5332 265.176 51.0991H265.202ZM241.506 35.5709V45.6446H251.031C252.91 45.749 254.789 45.3053 256.434 44.3658C257.008 43.9221 257.504 43.3741 257.817 42.7216C258.156 42.0692 258.313 41.3385 258.313 40.6077C258.313 39.877 258.13 39.1463 257.817 38.4938C257.478 37.8414 257.008 37.2672 256.434 36.8496C254.789 35.884 252.91 35.4404 251.031 35.5709H241.506ZM260.166 56.1881C260.166 52.6649 257.556 50.9163 252.362 50.9163H241.506V61.4598H252.362C257.582 61.4598 260.192 59.7113 260.166 56.1881Z" fill="white"/>
<path d="M293.398 41.5484C295.538 43.5058 296.635 46.481 296.635 50.4478V66.785H290.528V63.3922C289.693 64.6449 288.518 65.6105 287.135 66.1847C283.69 67.5157 279.854 67.4896 276.409 66.0803C274.973 65.454 273.721 64.41 272.833 63.1052C271.972 61.8264 271.529 60.3389 271.555 58.7991C271.529 57.6508 271.737 56.5025 272.233 55.4585C272.703 54.4146 273.434 53.5011 274.321 52.7704C276.174 51.2567 279.071 50.4999 283.038 50.4999H290.188V50.0824C290.241 49.2473 290.11 48.4122 289.823 47.6554C289.536 46.8724 289.066 46.1677 288.466 45.5935C287.005 44.4452 285.178 43.8973 283.325 44.0277C281.759 44.0277 280.219 44.2627 278.758 44.7586C277.348 45.1761 276.043 45.8545 274.895 46.768L272.364 41.9661C273.93 40.7917 275.704 39.9303 277.583 39.4084C279.671 38.8081 281.863 38.4951 284.029 38.5212C288.127 38.5734 291.232 39.565 293.398 41.5223V41.5484ZM287.448 61.2783C288.675 60.5476 289.614 59.4254 290.11 58.0683V54.8322H283.429C279.723 54.8322 277.844 56.0588 277.844 58.5381C277.844 59.0861 277.949 59.6341 278.183 60.13C278.418 60.6258 278.784 61.0435 279.227 61.3567C280.376 62.1135 281.733 62.4788 283.09 62.4005C284.63 62.4527 286.143 62.0612 287.448 61.2783Z" fill="white"/>
<path d="M328.912 41.6771C331 43.7388 332.07 46.7923 332.07 50.8113V66.7833H325.623V51.6465C325.78 49.663 325.154 47.7058 323.927 46.166C323.301 45.5136 322.544 45.0177 321.683 44.7045C320.848 44.3914 319.96 44.2608 319.047 44.313C318.003 44.2608 316.985 44.4174 316.02 44.7828C315.054 45.1481 314.167 45.7223 313.436 46.4792C311.948 48.2016 311.218 50.4461 311.374 52.7166V66.8092H304.928V38.9369H311.087V42.5384C312.183 41.2335 313.566 40.2418 315.106 39.6155C316.855 38.9369 318.708 38.5976 320.587 38.6237C322.1 38.5454 323.64 38.7804 325.075 39.3023C326.511 39.8243 327.842 40.6332 328.964 41.6771H328.912Z" fill="white"/>
<path d="M351.567 54.8327L346.791 59.4259V66.7855H340.292V28.1086H346.739V51.44L360.127 38.9391H367.878L356.369 50.631L369 66.7855H361.145L351.567 54.8327Z" fill="white"/>
</svg>
