<svg width="31" height="34" viewBox="0 0 31 34" fill="none" xmlns="http://www.w3.org/2000/svg">
<path d="M15.3559 0.0182651L15.2921 0L15.2282 0.0182651L0.0555954 3.95969L0.000855768 12.7184C-0.0265152 15.5741 0.603006 18.3932 1.84382 20.957C2.59196 22.4715 3.47695 23.9131 4.48968 25.2634C7.52785 29.3325 11.3415 32.1883 15.0184 33.4929C15.0366 33.5112 15.0549 33.5111 15.0822 33.5111C15.1005 33.5111 15.1279 33.5112 15.1461 33.4929C18.8412 32.243 22.6914 29.4329 25.7752 25.4003C26.8061 24.0591 27.7094 22.6266 28.4666 21.1303C29.7439 18.5757 30.41 15.7656 30.4191 12.9191L30.4738 4.16038L15.3559 0.0182651ZM23.0107 20.1359L15.1826 24.5517L7.43662 19.9808L7.52787 11.0031L15.3651 6.59638L23.111 11.1582L23.0198 20.1359H23.0107Z" fill="white"/>
<path d="M8.62376 11.6423L8.55078 19.3518L15.2019 23.2749L21.9261 19.4886L21.999 11.7791L15.3479 7.85596L8.62376 11.6423ZM18.7145 20.0725L16.8533 20.0908L15.9044 18.4942C15.9318 18.4212 15.95 18.3391 15.95 18.2569C15.95 18.1657 15.9501 18.0654 15.9136 17.9832C15.8862 17.892 15.8315 17.8099 15.7676 17.746C15.7037 17.673 15.6307 17.6183 15.5395 17.5818C15.4574 17.5453 15.357 17.5179 15.2658 17.5179C15.1745 17.5179 15.0742 17.5362 14.9921 17.5727C14.9008 17.6092 14.8278 17.6639 14.7549 17.7278C14.691 17.7916 14.6363 17.8737 14.5998 17.965C14.5633 18.0562 14.545 18.1474 14.5541 18.2387C14.5541 18.2934 14.5541 18.339 14.5724 18.3938L13.66 20.0269L11.7988 20.0451L10.8499 18.4394L11.7623 16.8245L13.6235 16.8063C13.6235 16.8063 13.6509 16.8336 13.6965 16.8793C13.7695 16.9522 13.8607 17.0161 13.9611 17.0526C14.0615 17.0891 14.1709 17.1073 14.2713 17.0891C14.3808 17.08 14.4811 17.0435 14.5633 16.9887C14.6545 16.934 14.7275 16.861 14.7822 16.7698C14.837 16.6785 14.8735 16.5782 14.8826 16.4778C14.8917 16.3683 14.8826 16.2679 14.8461 16.1676C14.8096 16.0672 14.7549 15.976 14.6727 15.903C14.5998 15.83 14.4994 15.7753 14.399 15.7479C14.3625 15.7297 14.3352 15.7115 14.2987 15.7023L13.4046 14.0783L14.3808 12.4908L16.242 12.5273L17.1361 14.1604L16.1599 15.7479H16.1052C16.0139 15.7844 15.9227 15.8392 15.8588 15.9122C15.7858 15.9851 15.7402 16.0672 15.7037 16.1676C15.6672 16.2588 15.6581 16.3592 15.6672 16.4596C15.6763 16.5599 15.7128 16.6511 15.7585 16.7424C15.8132 16.8245 15.8771 16.9067 15.9592 16.9614C16.0413 17.0161 16.1325 17.0526 16.2329 17.0709C16.3333 17.0891 16.4336 17.08 16.534 17.0526C16.6343 17.0252 16.7165 16.9796 16.7986 16.9157V16.8975L18.6598 16.8793L19.6086 18.4759L18.6963 20.0908L18.7145 20.0725ZM20.594 11.5328L10.1657 11.4689L15.3753 8.5585L20.594 11.5419V11.5328Z" fill="white"/>
</svg>
